<?xml version="1.0" encoding="UTF-8"?>
<svg xmlns="http://www.w3.org/2000/svg"
     width="64" height="64" viewBox="0 0 64 64"
     role="img" aria-labelledby="title desc">
  <title id="title">Flat 3D Building Icon - Outline Variant</title>
  <desc id="desc">Outline-only flat 3D building icon in light blue palette.</desc>
  <g id="outline" fill="none" stroke="#5C9FED" stroke-width="1.5">
    <!-- front face outline -->
    <rect x="18" y="14" width="28" height="36" rx="1.2" ry="1.2"/>
    <!-- side face outline -->
    <path d="M46 14 L54 18 L54 50 L46 50 Z"/>
    <!-- roof outline -->
    <path d="M16 13 L26 9 L54 15 L46 18 Z"/>
    <!-- windows grid outlines -->
    <g stroke="#5C9FED" stroke-width="1">
      <rect x="22" y="18" width="5" height="5" rx="0.6" ry="0.6"/>
      <rect x="30" y="18" width="5" height="5" rx="0.6" ry="0.6"/>
      <rect x="38" y="18" width="5" height="5" rx="0.6" ry="0.6"/>

      <rect x="22" y="26" width="5" height="5" rx="0.6" ry="0.6"/>
      <rect x="30" y="26" width="5" height="5" rx="0.6" ry="0.6"/>
      <rect x="38" y="26" width="5" height="5" rx="0.6" ry="0.6"/>

      <rect x="22" y="34" width="5" height="5" rx="0.6" ry="0.6"/>
      <rect x="30" y="34" width="5" height="5" rx="0.6" ry="0.6"/>
      <rect x="38" y="34" width="5" height="5" rx="0.6" ry="0.6"/>

      <rect x="22" y="42" width="5" height="5" rx="0.6" ry="0.6"/>
      <rect x="30" y="42" width="5" height="5" rx="0.6" ry="0.6"/>
      <rect x="38" y="42" width="5" height="5" rx="0.6" ry="0.6"/>
    </g>
  </g>
</svg>
